<svg width="141" height="36" viewBox="0 0 141 36" fill="none" xmlns="http://www.w3.org/2000/svg">
<rect y="2.96069" width="7.40184" height="7.40184" fill="#565656"/>
<rect opacity="0.6" x="14.8037" y="2.96069" width="7.40184" height="7.40184" fill="#565656"/>
<rect opacity="0.6" x="7.40182" y="10.3625" width="7.40184" height="7.40184" fill="#565656"/>
<rect opacity="0.45" x="14.8037" y="10.3625" width="7.40184" height="7.40184" fill="#565656"/>
<rect opacity="0.3" x="22.2055" y="10.3625" width="7.40184" height="7.40184" fill="#565656"/>
<rect opacity="0.6" y="17.7644" width="7.40184" height="7.40184" fill="#565656"/>
<rect opacity="0.45" x="7.40182" y="17.7644" width="7.40184" height="7.40184" fill="#565656"/>
<rect opacity="0.3" x="14.8037" y="17.7644" width="7.40184" height="7.40184" fill="#565656"/>
<rect opacity="0.15" x="22.2055" y="17.7644" width="7.40184" height="7.40184" fill="#565656"/>
<rect opacity="0.3" x="7.40182" y="25.1663" width="7.40184" height="7.40184" fill="#565656"/>
<rect opacity="0.15" x="14.8037" y="25.1663" width="7.40184" height="7.40184" fill="#565656"/>
<path d="M51.7536 17.1871C51.7536 19.23 51.0949 20.9842 49.7774 22.4498C48.4746 23.9153 46.6538 24.6481 44.3148 24.6481C41.961 24.6481 40.155 23.9153 38.8967 22.4498C37.6383 20.9842 37.0092 19.2448 37.0092 17.2315C37.0092 15.1294 37.6754 13.3603 39.0077 11.9244C40.34 10.4884 42.1387 9.77044 44.4036 9.77044C46.713 9.77044 48.5116 10.5032 49.7996 11.9688C51.1023 13.4195 51.7536 15.159 51.7536 17.1871ZM48.5338 17.2759C48.5338 15.7363 48.1786 14.5372 47.468 13.6786C46.7574 12.82 45.7286 12.3907 44.3814 12.3907C42.9455 12.3907 41.8944 12.8496 41.2282 13.7674C40.5621 14.6705 40.229 15.8029 40.229 17.1649C40.229 18.4824 40.5547 19.6223 41.206 20.5845C41.8574 21.5468 42.9455 22.0279 44.4702 22.0279C45.8766 22.0279 46.9054 21.5912 47.5568 20.7178C48.2082 19.8295 48.5338 18.6822 48.5338 17.2759Z" fill="#565656"/>
<path d="M64.1868 24.4261H59.99V22.5608C59.7087 23.1382 59.2942 23.6341 58.7465 24.0486C58.1987 24.4483 57.4734 24.6481 56.5703 24.6481C55.2528 24.6481 54.2166 24.1966 53.4616 23.2936C52.7066 22.3906 52.3291 21.1619 52.3291 19.6075C52.3291 18.1123 52.6992 16.8392 53.4394 15.7881C54.1795 14.7371 55.2972 14.2115 56.7924 14.2115C57.6066 14.2115 58.2728 14.3744 58.7909 14.7001C59.309 15.0257 59.7087 15.4402 59.99 15.9436V11.3248H57.9915V9.14868H62.8545V22.2721H64.1868V24.4261ZM59.99 19.3632V19.119C59.99 18.29 59.7679 17.646 59.3238 17.1871C58.8945 16.7134 58.3542 16.4765 57.7028 16.4765C57.0663 16.4765 56.5037 16.7134 56.0152 17.1871C55.5415 17.6608 55.3046 18.4084 55.3046 19.4298C55.3046 20.3921 55.5267 21.1249 55.9708 21.6282C56.4149 22.1315 56.9404 22.3832 57.5474 22.3832C58.3024 22.3832 58.8945 22.0649 59.3238 21.4283C59.7679 20.7918 59.99 20.1034 59.99 19.3632Z" fill="#565656"/>
<path d="M74.3417 21.2729C74.2677 22.1611 73.831 22.9457 73.0316 23.6267C72.2322 24.3076 71.1145 24.6481 69.6785 24.6481C68.1834 24.6481 66.9473 24.2262 65.9702 23.3824C65.008 22.5386 64.5268 21.2803 64.5268 19.6075C64.5268 18.0679 64.9636 16.7874 65.837 15.7659C66.7252 14.7297 67.9613 14.2115 69.5453 14.2115C70.9368 14.2115 72.0619 14.6112 72.9205 15.4106C73.7939 16.21 74.2381 17.2611 74.2529 18.5638C74.2529 19.0523 74.2011 19.5335 74.0974 20.0072H67.5246C67.6874 21.5912 68.472 22.3832 69.8784 22.3832C70.6482 22.3832 71.1663 22.1981 71.4328 21.828C71.714 21.4579 71.8843 21.1249 71.9435 20.8288L74.3417 21.2729ZM71.2995 18.3418C71.3587 17.8384 71.2477 17.3647 70.9664 16.9206C70.7 16.4765 70.2263 16.2544 69.5453 16.2544C68.9531 16.2544 68.4942 16.4469 68.1686 16.8318C67.8429 17.2167 67.6356 17.72 67.5468 18.3418H71.2995Z" fill="#565656"/>
<path d="M75.8605 15.122C76.7339 14.7667 77.4593 14.5298 78.0367 14.4114C78.6288 14.2782 79.332 14.2115 80.1462 14.2115C81.2268 14.2115 82.1595 14.4928 82.9441 15.0553C83.7287 15.6179 84.121 16.4691 84.121 17.609V21.9613C84.121 22.4794 84.3504 22.7385 84.8093 22.7385C84.9426 22.7385 85.0832 22.7163 85.2312 22.6718L85.2534 24.1818C84.6761 24.4927 84.0766 24.6481 83.4548 24.6481C82.1373 24.6481 81.4045 23.9894 81.2565 22.6718V22.6496C80.9752 23.153 80.5681 23.6119 80.0351 24.0264C79.517 24.4409 78.8509 24.6481 78.0367 24.6481C77.3113 24.6481 76.6155 24.4335 75.9493 24.0042C75.2832 23.5749 74.9501 22.8347 74.9501 21.7836C74.9501 20.5549 75.4386 19.7407 76.4156 19.341C77.4075 18.9413 78.4734 18.7415 79.6132 18.7415C80.2498 18.7415 80.7975 18.7711 81.2565 18.8303V18.4972C81.2565 17.9791 81.1824 17.4757 81.0344 16.9872C80.9012 16.4987 80.4274 16.2544 79.6132 16.2544C79.3172 16.2544 79.0433 16.2767 78.7916 16.3211C78.5548 16.3507 78.3179 16.4247 78.0811 16.5431L77.7036 17.9643L75.4164 17.72L75.8605 15.122ZM81.2565 20.3403V20.207C81.0196 20.1774 80.7753 20.1478 80.5237 20.1182C80.2868 20.0886 80.0499 20.0738 79.8131 20.0738C79.3098 20.0738 78.8657 20.17 78.4808 20.3625C78.0959 20.5401 77.9034 20.9028 77.9034 21.4505C77.9034 21.7762 77.9922 22.0501 78.1699 22.2721C78.3475 22.4942 78.651 22.6052 79.0803 22.6052C79.5836 22.6052 80.05 22.4276 80.4793 22.0723C80.9234 21.7022 81.1824 21.1249 81.2565 20.3403Z" fill="#565656"/>
<path d="M96.3087 19.4298C96.3087 21.0138 95.7905 22.2795 94.7543 23.227C93.718 24.1744 92.4005 24.6481 90.8017 24.6481C89.2621 24.6481 88.0038 24.204 87.0268 23.3158C86.0645 22.4128 85.5834 21.1545 85.5834 19.5409C85.5834 18.0753 86.0275 16.817 86.9157 15.7659C87.804 14.7149 89.1511 14.1893 90.9571 14.1893C92.7632 14.1893 94.1029 14.7149 94.9763 15.7659C95.8646 16.8022 96.3087 18.0235 96.3087 19.4298ZM93.3553 19.341C93.3553 18.3196 93.1185 17.572 92.6448 17.0983C92.171 16.6245 91.5937 16.3877 90.9127 16.3877C90.1725 16.3877 89.5878 16.6541 89.1585 17.1871C88.744 17.7052 88.5367 18.438 88.5367 19.3854C88.5367 20.244 88.7292 20.9694 89.1141 21.5616C89.5138 22.1537 90.1059 22.4498 90.8905 22.4498C91.6307 22.4498 92.2228 22.1759 92.667 21.6282C93.1259 21.0656 93.3553 20.3033 93.3553 19.341Z" fill="#565656"/>
<path d="M107.544 24.4261H96.7073V21.8946H98.2617V12.5239H96.7073V9.99249H103.258V12.5239H101.237V21.8946H105.012L105.456 19.0968L107.988 19.3188L107.544 24.4261Z" fill="#565656"/>
<path d="M109.289 15.122C110.163 14.7667 110.888 14.5298 111.465 14.4114C112.058 14.2782 112.761 14.2115 113.575 14.2115C114.656 14.2115 115.588 14.4928 116.373 15.0553C117.158 15.6179 117.55 16.4691 117.55 17.609V21.9613C117.55 22.4794 117.779 22.7385 118.238 22.7385C118.371 22.7385 118.512 22.7163 118.66 22.6718L118.682 24.1818C118.105 24.4927 117.505 24.6481 116.884 24.6481C115.566 24.6481 114.833 23.9894 114.685 22.6718V22.6496C114.404 23.153 113.997 23.6119 113.464 24.0264C112.946 24.4409 112.28 24.6481 111.465 24.6481C110.74 24.6481 110.044 24.4335 109.378 24.0042C108.712 23.5749 108.379 22.8347 108.379 21.7836C108.379 20.5549 108.867 19.7407 109.844 19.341C110.836 18.9413 111.902 18.7415 113.042 18.7415C113.679 18.7415 114.226 18.7711 114.685 18.8303V18.4972C114.685 17.9791 114.611 17.4757 114.463 16.9872C114.33 16.4987 113.856 16.2544 113.042 16.2544C112.746 16.2544 112.472 16.2767 112.22 16.3211C111.984 16.3507 111.747 16.4247 111.51 16.5431L111.132 17.9643L108.845 17.72L109.289 15.122ZM114.685 20.3403V20.207C114.448 20.1774 114.204 20.1478 113.953 20.1182C113.716 20.0886 113.479 20.0738 113.242 20.0738C112.739 20.0738 112.295 20.17 111.91 20.3625C111.525 20.5401 111.332 20.9028 111.332 21.4505C111.332 21.7762 111.421 22.0501 111.599 22.2721C111.776 22.4942 112.08 22.6052 112.509 22.6052C113.012 22.6052 113.479 22.4276 113.908 22.0723C114.352 21.7022 114.611 21.1249 114.685 20.3403Z" fill="#565656"/>
<path d="M130.337 19.1856C130.337 20.6659 129.945 21.9465 129.16 23.0271C128.39 24.1078 127.25 24.6481 125.741 24.6481C124.216 24.6481 123.142 24.0708 122.521 22.9161C122.491 23.1678 122.454 23.4194 122.41 23.6711C122.38 23.9228 122.343 24.1744 122.299 24.4261H119.434C119.538 23.9079 119.627 23.3898 119.701 22.8717C119.775 22.3536 119.812 21.8428 119.812 21.3395V11.3248H118.479V9.14868H122.676V16.3211C122.943 15.7437 123.342 15.2478 123.875 14.8333C124.423 14.4188 125.148 14.2115 126.051 14.2115C127.31 14.2115 128.339 14.6482 129.138 15.5217C129.937 16.3951 130.337 17.6164 130.337 19.1856ZM127.362 19.4298C127.362 18.4676 127.154 17.7348 126.74 17.2315C126.325 16.7282 125.778 16.4765 125.097 16.4765C124.327 16.4765 123.727 16.7578 123.298 17.3203C122.883 17.8829 122.676 18.5342 122.676 19.2744V19.5187C122.676 20.3329 122.876 21.0212 123.276 21.5838C123.69 22.1315 124.275 22.4054 125.03 22.4054C125.681 22.4054 126.229 22.1685 126.673 21.6948C127.132 21.2063 127.362 20.4513 127.362 19.4298Z" fill="#565656"/>
<path d="M140.014 21.3617C140.014 22.472 139.57 23.301 138.681 23.8487C137.808 24.3817 136.668 24.6481 135.262 24.6481C134.536 24.6481 133.804 24.5741 133.063 24.4261C132.338 24.2632 131.642 24.0116 130.976 23.6711L131.376 20.8732L133.596 21.1175V22.361C133.863 22.4498 134.144 22.509 134.44 22.5386C134.736 22.5534 134.958 22.5608 135.106 22.5608C135.654 22.5608 136.128 22.472 136.528 22.2943C136.927 22.1167 137.127 21.8502 137.127 21.4949C137.127 21.0656 136.824 20.7844 136.217 20.6511C135.61 20.5179 134.907 20.3847 134.107 20.2514C133.308 20.1182 132.605 19.8443 131.998 19.4298C131.391 19.0153 131.087 18.3122 131.087 17.3203C131.087 16.0916 131.561 15.27 132.508 14.8555C133.471 14.4262 134.462 14.2115 135.484 14.2115C136.816 14.2115 138.067 14.515 139.237 15.122L139.481 17.6756L137.26 17.9199L137.083 16.5209C136.594 16.3581 136.069 16.2767 135.506 16.2767C135.136 16.2767 134.818 16.3581 134.551 16.5209C134.3 16.669 134.174 16.9058 134.174 17.2315C134.174 17.6608 134.462 17.9495 135.04 18.0975C135.632 18.2307 136.313 18.364 137.083 18.4972C137.867 18.6304 138.548 18.9043 139.126 19.3188C139.718 19.7185 140.014 20.3995 140.014 21.3617Z" fill="#565656"/>
</svg>
