<svg width="109" height="36" viewBox="0 0 109 36" fill="none" xmlns="http://www.w3.org/2000/svg">
<path d="M14.8037 2.96069L17.9761 10.1054L25.2715 7.29659L22.4627 14.5919L29.6074 17.7644L22.4627 20.9368L25.2715 28.2321L17.9761 25.4234L14.8037 32.568L11.6312 25.4234L4.3359 28.2321L7.14466 20.9368L0 17.7644L7.14466 14.5919L4.3359 7.29659L11.6312 10.1054L14.8037 2.96069Z" fill="#565656"/>
<path d="M49.7893 12.4677C50.1209 12.7993 50.5354 12.9651 51.0328 12.9651C51.5302 12.9651 51.9378 12.7993 52.2556 12.4677C52.5734 12.1223 52.7323 11.7078 52.7323 11.2242C52.7323 10.7268 52.5734 10.3123 52.2556 9.98068C51.9378 9.64908 51.5302 9.48328 51.0328 9.48328C50.5354 9.48328 50.1209 9.64908 49.7893 9.98068C49.4715 10.3123 49.3127 10.7268 49.3127 11.2242C49.3127 11.7078 49.4715 12.1223 49.7893 12.4677Z" fill="#565656"/>
<path d="M38.7827 17.2259L44.3784 24.4261H48.4199L42.2927 16.7576L48.2126 9.79415H44.1919L38.7827 16.3946V9.79415H35.5288V24.4261H38.7827V17.2259Z" fill="#565656"/>
<path d="M57.7632 17.4625C57.4868 17.7941 57.3487 18.25 57.3487 18.8303V24.4261H54.1777V18.7681C54.1777 17.8424 54.3781 17.0341 54.7787 16.3433C55.1932 15.6386 55.7597 15.0929 56.4782 14.706C57.2105 14.3191 58.0533 14.1257 59.0067 14.1257C59.9739 14.1257 60.8167 14.3191 61.5351 14.706C62.2536 15.0929 62.8132 15.6317 63.2139 16.3226C63.6146 17.0134 63.8149 17.8286 63.8149 18.7681V24.4261H60.644V18.8303C60.644 18.25 60.4989 17.7941 60.2087 17.4625C59.9324 17.117 59.5317 16.9443 59.0067 16.9443C58.4678 16.9443 58.0533 17.117 57.7632 17.4625Z" fill="#565656"/>
<path d="M68.581 24.1774C69.189 24.4952 69.8936 24.6541 70.695 24.6541C71.4688 24.6541 72.0974 24.5366 72.581 24.3018C73.0646 24.0669 73.4998 23.7284 73.8867 23.2862L71.9592 21.3381C71.8211 21.49 71.6622 21.6075 71.4826 21.6904C71.3168 21.7595 71.1164 21.794 70.8815 21.794C70.6052 21.794 70.3634 21.7042 70.1562 21.5246C69.9627 21.345 69.866 21.0755 69.866 20.7163V17.0687H73.1613V14.3537H69.866V10.1879H66.6951V14.3537H64.4567V17.0687H66.6951V20.6956C66.6951 21.5108 66.8609 22.2154 67.1925 22.8095C67.5241 23.4037 67.9869 23.8596 68.581 24.1774Z" fill="#565656"/>
<path d="M78.4767 24.6748C77.8825 24.6748 77.2953 24.5988 76.715 24.4468C76.1485 24.2948 75.6166 24.0807 75.1192 23.8044C74.6356 23.5142 74.2211 23.1826 73.8757 22.8095L75.6788 20.9857C76.0104 21.345 76.4041 21.6282 76.8601 21.8355C77.316 22.0289 77.8134 22.1256 78.3523 22.1256C78.7254 22.1256 79.0086 22.0703 79.202 21.9598C79.4093 21.8493 79.5129 21.6973 79.5129 21.5039C79.5129 21.2552 79.3886 21.0686 79.1399 20.9443C78.905 20.8061 78.601 20.6887 78.228 20.592C77.8549 20.4814 77.4611 20.364 77.0466 20.2396C76.6321 20.1153 76.2383 19.9426 75.8653 19.7215C75.4922 19.5004 75.1883 19.1965 74.9534 18.8096C74.7185 18.4089 74.6011 17.9046 74.6011 17.2967C74.6011 16.6473 74.7669 16.0877 75.0985 15.6179C75.4301 15.1343 75.8998 14.7544 76.5078 14.478C77.1157 14.2017 77.8273 14.0635 78.6425 14.0635C79.4991 14.0635 80.2867 14.2155 81.0051 14.5195C81.7374 14.8096 82.3315 15.2449 82.7875 15.8252L80.9844 17.649C80.6666 17.2759 80.3074 17.0134 79.9067 16.8614C79.5198 16.7094 79.1399 16.6335 78.7668 16.6335C78.4076 16.6335 78.1381 16.6887 77.9585 16.7993C77.7789 16.896 77.6891 17.041 77.6891 17.2345C77.6891 17.4417 77.8065 17.6075 78.0414 17.7319C78.2763 17.8562 78.5803 17.9668 78.9533 18.0635C79.3264 18.1602 79.7202 18.2776 80.1347 18.4158C80.5492 18.554 80.9429 18.7405 81.316 18.9754C81.6891 19.2103 81.993 19.5281 82.2279 19.9288C82.4628 20.3156 82.5802 20.8268 82.5802 21.4624C82.5802 22.4434 82.2072 23.224 81.4611 23.8044C80.7288 24.3847 79.734 24.6748 78.4767 24.6748Z" fill="#565656"/>
<path d="M85.8964 24.0945C86.6149 24.4676 87.437 24.6541 88.3627 24.6541C89.2884 24.6541 90.1036 24.4676 90.8083 24.0945C91.5129 23.7076 92.0656 23.1826 92.4663 22.5194C92.867 21.8424 93.0673 21.0617 93.0673 20.1775V14.3537H89.8964V20.1567C89.8964 20.6818 89.7582 21.0963 89.4819 21.4002C89.2055 21.6904 88.8325 21.8355 88.3627 21.8355C88.0311 21.8355 87.7479 21.7664 87.513 21.6282C87.2781 21.49 87.0985 21.2966 86.9741 21.0479C86.8636 20.7992 86.8083 20.5021 86.8083 20.1567V14.3537H83.6374V20.1982C83.6374 21.0686 83.8377 21.8424 84.2384 22.5194C84.6391 23.1826 85.1918 23.7076 85.8964 24.0945Z" fill="#565656"/>
<path fill-rule="evenodd" clip-rule="evenodd" d="M98.623 28.9027C97.6972 28.9027 96.8613 28.7369 96.1152 28.4053C95.3829 28.0737 94.8026 27.6109 94.3743 27.0167C93.9598 26.4364 93.7525 25.7663 93.7525 25.0064C93.7525 24.3985 93.8354 23.9011 94.0012 23.5142C94.1809 23.1273 94.4503 22.7474 94.8095 22.3743L97.0686 23.8251C96.9442 23.9632 96.8475 24.1083 96.7784 24.2603C96.7093 24.4123 96.6748 24.5919 96.6748 24.7992C96.6748 25.2137 96.8475 25.5453 97.1929 25.794C97.5383 26.0427 98.0219 26.167 98.6437 26.167C99.3069 26.167 99.8181 26.0081 100.177 25.6903C100.537 25.3864 100.716 24.9511 100.716 24.3847C100.716 24.0116 100.626 23.6869 100.447 23.4106C100.267 23.1204 100.012 22.8994 99.6799 22.7474C99.3622 22.5816 98.996 22.4987 98.5815 22.4987C97.7939 22.4987 97.0824 22.319 96.4468 21.9598C95.8251 21.5868 95.3277 21.0894 94.9546 20.4676C94.5954 19.832 94.4158 19.1205 94.4158 18.3329C94.4158 17.5177 94.6023 16.7993 94.9753 16.1775C95.3622 15.5419 95.8803 15.0445 96.5297 14.6853C97.1929 14.3261 97.9321 14.1464 98.7473 14.1464C99.4468 14.1464 100.085 14.2787 100.663 14.5432L102.333 12.9029L104.157 14.7267L102.609 16.2748C102.922 16.8246 103.079 17.4415 103.079 18.1257C103.079 18.8856 102.892 19.5557 102.519 20.136C102.287 20.512 101.996 20.8357 101.647 21.1073C102.187 21.4535 102.623 21.8897 102.955 22.4158C103.355 23.0513 103.556 23.7767 103.556 24.5919C103.556 25.4347 103.348 26.1808 102.934 26.8302C102.519 27.4796 101.946 27.9839 101.214 28.3432C100.481 28.7162 99.6178 28.9027 98.623 28.9027ZM98.7473 19.8873C99.0651 19.8873 99.3414 19.8251 99.5763 19.7008C99.8112 19.5626 99.9977 19.3761 100.136 19.1412C100.274 18.9063 100.343 18.6369 100.343 18.3329C100.343 18.0289 100.274 17.7595 100.136 17.5246C100.012 17.2897 99.825 17.1101 99.5763 16.9858C99.3414 16.8476 99.0651 16.7785 98.7473 16.7785C98.4295 16.7785 98.1532 16.8476 97.9183 16.9858C97.6834 17.1101 97.4969 17.2897 97.3587 17.5246C97.2206 17.7595 97.1515 18.0289 97.1515 18.3329C97.1515 18.6369 97.2206 18.9063 97.3587 19.1412C97.4969 19.3761 97.6834 19.5626 97.9183 19.7008C98.167 19.8251 98.4433 19.8873 98.7473 19.8873Z" fill="#565656"/>
<path d="M105.349 12.4677C105.681 12.7993 106.095 12.9651 106.592 12.9651C107.09 12.9651 107.497 12.7993 107.815 12.4677C108.133 12.1223 108.292 11.7078 108.292 11.2242C108.292 10.7268 108.133 10.3123 107.815 9.98068C107.497 9.64908 107.09 9.48328 106.592 9.48328C106.095 9.48328 105.681 9.64908 105.349 9.98068C105.031 10.3123 104.872 10.7268 104.872 11.2242C104.872 11.7078 105.031 12.1223 105.349 12.4677Z" fill="#565656"/>
<path d="M49.437 14.3537V24.4261H52.608V14.3537H49.437Z" fill="#565656"/>
<path d="M104.997 14.3537V24.4261H108.168V14.3537H104.997Z" fill="#565656"/>
</svg>
