<svg width="134" height="36" viewBox="0 0 134 36" fill="none" xmlns="http://www.w3.org/2000/svg">
<path fill-rule="evenodd" clip-rule="evenodd" d="M11.9722 21.0903L15.354 24.472C17.4119 26.53 20.7486 26.53 22.8065 24.472C23.4852 23.7933 23.9401 22.9755 24.1711 22.1104L26.5328 24.472C28.5908 26.53 31.9274 26.53 33.9854 24.472C36.0433 22.4141 36.0433 19.0774 33.9853 17.0195L26.5328 9.56691C24.4748 7.50895 21.1382 7.50895 19.0802 9.56691C18.4015 10.2456 17.9466 11.0634 17.7156 11.9286L15.354 9.56691C13.296 7.50895 9.95936 7.50895 7.9014 9.56692L1.76856 15.6997C-0.589522 18.0578 -0.589521 21.8811 1.76856 24.2391C4.12665 26.5972 7.94987 26.5972 10.308 24.2391C11.2006 23.3465 11.7554 22.2439 11.9722 21.0903ZM13.4908 11.4301C12.4618 10.4011 10.7935 10.4011 9.76454 11.4301C8.736 12.4586 8.73556 14.1259 9.76322 15.155L17.2171 22.6089C18.2461 23.6379 19.9144 23.6379 20.9434 22.6089C21.9718 21.5805 21.9724 19.9134 20.945 18.8843L13.4908 11.4301ZM8.44481 17.5629L6.03826 15.1563L3.63171 17.5629C2.3026 18.892 2.3026 21.0469 3.63171 22.376C4.96081 23.7051 7.11571 23.7051 8.44481 22.376C9.77392 21.0469 9.77392 18.892 8.44481 17.5629ZM20.9412 15.1541C19.9144 14.125 19.9151 12.4583 20.9434 11.4301C21.9724 10.4011 23.6407 10.4011 24.6697 11.4301L32.1222 18.8826C33.1512 19.9116 33.1512 21.5799 32.1222 22.6089C31.0932 23.6379 29.4249 23.6379 28.3959 22.6089L20.9412 15.1541Z" fill="#565656"/>
<path d="M44.8204 24.4259H41.4503V8.5416H44.8204L49.5427 18.9101L54.2866 8.5416H57.6996V24.4259H54.3295V21.0988C54.3295 17.6644 54.3295 16.9131 54.5012 15.7325L51.1312 22.9456H47.9543L44.6057 15.7325C44.7989 16.9131 44.8204 18.2439 44.8204 19.9826V24.4259Z" fill="#565656"/>
<path d="M63.8415 24.705C61.5662 24.705 60.1495 23.3741 60.1495 21.2705C60.1495 19.2957 61.5447 18.0722 64.1206 17.879L67.1257 17.6429V17.4712C67.1257 16.4194 66.4817 15.8613 65.3012 15.8613C63.9059 15.8613 63.1546 16.3979 63.1546 17.3639H60.4071C60.4071 14.9383 62.4033 13.3498 65.4729 13.3498C68.5853 13.3498 70.3455 15.0885 70.3455 18.1581V24.4259H67.4262L67.2116 23.0092C66.8681 23.9966 65.4514 24.705 63.8415 24.705ZM65.0006 22.2579C66.2671 22.2579 67.1472 21.6355 67.1472 20.4119V19.8324L65.4729 19.9826C64.0347 20.1114 63.5195 20.4334 63.5195 21.1203C63.5195 21.893 63.9918 22.2579 65.0006 22.2579Z" fill="#565656"/>
<path d="M72.1798 18.8664C72.1798 15.6037 74.3049 13.3284 77.3315 13.3284C78.7911 13.3284 79.9502 13.8865 80.5298 14.7665L80.7015 13.6933H83.814V23.7391C83.814 27.5814 81.6031 29.8996 77.9325 29.8996C74.6483 29.8996 72.4374 28.0321 72.1369 24.984H75.4854C75.5498 26.1861 76.4514 26.8945 77.911 26.8945C79.4995 26.8945 80.5083 25.95 80.5083 24.4259V23.0307C79.8644 23.8035 78.6623 24.2972 77.2671 24.2972C74.2619 24.2972 72.1798 22.0862 72.1798 18.8664ZM75.5069 18.7806C75.5069 20.3261 76.5372 21.4208 77.9969 21.4208C79.4995 21.4208 80.5083 20.369 80.5083 18.7806C80.5083 17.2136 79.4995 16.2047 77.9754 16.2047C76.5158 16.2047 75.5069 17.2565 75.5069 18.7806Z" fill="#565656"/>
<path d="M89.6056 24.4259H86.2999V13.6933H89.4124L89.6271 14.8095C90.2925 13.8865 91.516 13.3498 92.9113 13.3498C95.4656 13.3498 96.9468 14.9812 96.9468 17.7932V24.4259H93.6411V18.5874C93.6411 17.2351 92.8898 16.355 91.7521 16.355C90.4428 16.355 89.6056 17.2136 89.6056 18.5444V24.4259Z" fill="#565656"/>
<path d="M98.7379 19.0382C98.7379 15.6466 101.228 13.3713 104.662 13.3713C108.075 13.3713 110.565 15.6466 110.565 19.0382C110.565 22.4297 108.075 24.6835 104.662 24.6835C101.228 24.6835 98.7379 22.4297 98.7379 19.0382ZM102.065 19.0167C102.065 20.6481 103.117 21.7213 104.662 21.7213C106.186 21.7213 107.238 20.6481 107.238 19.0167C107.238 17.4068 106.186 16.3335 104.662 16.3335C103.117 16.3335 102.065 17.4068 102.065 19.0167Z" fill="#565656"/>
<path d="M115.787 24.4259H112.482V8.24109H115.787V24.4259Z" fill="#565656"/>
<path d="M119.899 12.019C118.847 12.019 118.01 11.1818 118.01 10.13C118.01 9.07824 118.847 8.26255 119.899 8.26255C120.929 8.26255 121.766 9.07824 121.766 10.13C121.766 11.1818 120.929 12.019 119.899 12.019ZM118.267 24.4259V13.6933H121.573V24.4259H118.267Z" fill="#565656"/>
<path d="M127.294 24.705C125.019 24.705 123.602 23.3741 123.602 21.2705C123.602 19.2957 124.997 18.0722 127.573 17.879L130.578 17.6429V17.4712C130.578 16.4194 129.934 15.8613 128.754 15.8613C127.359 15.8613 126.607 16.3979 126.607 17.3639H123.86C123.86 14.9383 125.856 13.3498 128.926 13.3498C132.038 13.3498 133.798 15.0885 133.798 18.1581V24.4259H130.879L130.664 23.0092C130.321 23.9966 128.904 24.705 127.294 24.705ZM128.453 22.2579C129.72 22.2579 130.6 21.6355 130.6 20.4119V19.8324L128.926 19.9826C127.487 20.1114 126.972 20.4334 126.972 21.1203C126.972 21.893 127.444 22.2579 128.453 22.2579Z" fill="#565656"/>
</svg>
