<svg width="147" height="36" viewBox="0 0 147 36" fill="none" xmlns="http://www.w3.org/2000/svg">
<path fill-rule="evenodd" clip-rule="evenodd" d="M19.7479 1.49067C20.0788 1.31802 20.4743 1.32319 20.8006 1.50443L28.296 5.66797C28.6486 5.86379 28.8672 6.23537 28.8672 6.63863L28.8666 14.9654C28.8666 15.379 28.6367 15.7583 28.27 15.9496L9.11879 25.9418C8.78784 26.1145 8.39227 26.1093 8.06597 25.928L0.572492 21.7646C0.2201 21.5688 0.00152298 21.1974 0.00145266 20.7942L1.69855e-08 12.4674C-7.21607e-05 12.0537 0.229893 11.6743 0.596688 11.4829L19.7479 1.49067ZM2.22067 13.1402L2.22168 18.9626L19.1525 10.1289L19.1515 4.30646L2.22067 13.1402ZM21.372 4.362L21.3731 10.1485L26.6462 13.0783L26.6466 7.29188L21.372 4.362ZM25.4151 14.9346L20.2464 12.0628L3.45305 20.8248L8.62175 23.6965L25.4151 14.9346Z" fill="#565656"/>
<path opacity="0.5" fill-rule="evenodd" clip-rule="evenodd" d="M9.11933 34.2695C8.78842 34.4421 8.39289 34.4369 8.06661 34.2557L0.571163 30.0922C0.218634 29.8963 -1.21943e-06 29.5248 2.4228e-05 29.1215L0.000541671 20.7948C0.000567119 20.3811 0.230516 20.0018 0.597229 19.8105L19.7484 9.81829C20.0793 9.64561 20.4749 9.6508 20.8012 9.8321L28.2947 13.9955C28.6471 14.1913 28.8657 14.5628 28.8657 14.9659L28.8672 23.2927C28.8673 23.7064 28.6373 24.0859 28.2705 24.2773L9.11933 34.2695ZM26.6465 22.6199L26.6455 16.7975L9.71468 25.6312L9.7157 31.4537L26.6465 22.6199ZM7.49514 31.3981L7.49413 25.6116L2.22098 22.6818L2.22062 28.4683L7.49514 31.3981ZM3.45214 20.8256L8.62084 23.6973L25.4141 14.9354L20.2454 12.0636L3.45214 20.8256Z" fill="#565656"/>
<path d="M48.16 19.9694C48.16 22.7073 45.9617 24.6259 42.3644 24.6259C38.7471 24.6259 36.4888 22.6874 36.269 19.6496H39.3467C39.4266 21.2284 40.4458 22.2477 42.3044 22.2477C43.8433 22.2477 44.9425 21.5682 44.9425 20.4091C44.9425 19.5097 44.243 18.9701 43.0239 18.7303L40.6657 18.2707C38.4873 17.851 36.8086 16.6719 36.8086 14.2937C36.8086 11.7356 39.0669 9.89697 42.1645 9.89697C45.3821 9.89697 47.7404 11.7756 47.9402 14.7733H44.8625C44.7626 13.2744 43.7234 12.2552 42.2045 12.2552C40.7256 12.2552 39.8863 13.0946 39.8863 14.0938C39.8863 15.0731 40.7856 15.4928 41.8248 15.6926L44.283 16.1922C46.8011 16.6919 48.16 17.851 48.16 19.9694Z" fill="#565656"/>
<path d="M56.0739 21.7281V24.1463C55.3944 24.486 54.7549 24.6259 53.9355 24.6259C51.7372 24.6259 50.3582 23.3668 50.3582 20.9686V16.1323H48.1998V13.7541H50.3582V10.5964H53.1162V13.7541H56.1739V16.1323H53.1162V20.3291C53.1162 21.5682 53.6757 22.0678 54.675 22.0678C55.1946 22.0678 55.6742 21.9479 56.0739 21.7281Z" fill="#565656"/>
<path d="M63.4259 24.426V23.107C62.7264 24.1063 61.6672 24.6259 60.2083 24.6259C57.99 24.6259 56.5111 23.3269 56.5111 21.3284C56.5111 19.2499 58.1898 18.1308 61.3075 18.1308C61.907 18.1308 62.4266 18.1707 63.0861 18.2507V17.6112C63.0861 16.4121 62.4067 15.7126 61.2475 15.7126C60.0484 15.7126 59.329 16.4121 59.2291 17.6112H56.7309C56.8908 15.153 58.6695 13.5542 61.2475 13.5542C64.0454 13.5542 65.6842 15.0931 65.6842 17.7111V24.426H63.4259ZM59.1291 21.2484C59.1291 22.1478 59.7686 22.7073 60.8079 22.7073C62.2268 22.7073 63.0861 21.9279 63.0861 20.6889V19.9294C62.4266 19.8295 61.967 19.7895 61.4874 19.7895C59.9085 19.7895 59.1291 20.2892 59.1291 21.2484Z" fill="#565656"/>
<path d="M71.7752 24.6259C68.6975 24.6259 66.5791 22.3476 66.5791 19.0901C66.5791 15.8925 68.7775 13.5542 71.7752 13.5542C74.5531 13.5542 76.6116 15.4328 76.9513 18.3106H74.0335C73.8936 16.8917 73.0343 16.0124 71.7752 16.0124C70.3363 16.0124 69.417 17.1915 69.417 19.0901C69.417 21.0086 70.3163 22.1677 71.7752 22.1677C73.0543 22.1677 73.8737 21.3284 74.0335 19.8695H76.9513C76.6316 22.8073 74.6331 24.6259 71.7752 24.6259Z" fill="#565656"/>
<path d="M80.7134 24.426H77.9354V10.0768H80.7134V18.2707L84.6104 13.7541H87.808L83.3913 18.8702L88.3276 24.426H84.7903L80.7134 19.4698V24.426Z" fill="#565656"/>
<path d="M98.8424 19.0901C98.8424 15.9324 100.701 13.5542 103.579 13.5542C104.858 13.5542 105.937 14.1138 106.736 15.133V10.0768H109.494V24.426H106.956V22.8872C106.117 24.0064 104.958 24.6259 103.579 24.6259C100.701 24.6259 98.8424 22.2077 98.8424 19.0901ZM101.7 19.0901C101.7 21.0886 102.839 22.1478 104.198 22.1478C105.577 22.1478 106.716 21.0686 106.716 19.0501C106.716 17.0316 105.557 16.0124 104.198 16.0124C102.839 16.0124 101.7 17.0516 101.7 19.0901Z" fill="#565656"/>
<path d="M124.064 24.426H114.791V10.0768H117.829V21.6881H124.064V24.426Z" fill="#565656"/>
<path d="M131.466 24.426V23.107C130.767 24.1063 129.707 24.6259 128.249 24.6259C126.03 24.6259 124.551 23.3269 124.551 21.3284C124.551 19.2499 126.23 18.1308 129.348 18.1308C129.947 18.1308 130.467 18.1707 131.126 18.2507V17.6112C131.126 16.4121 130.447 15.7126 129.288 15.7126C128.089 15.7126 127.369 16.4121 127.269 17.6112H124.771C124.931 15.153 126.71 13.5542 129.288 13.5542C132.086 13.5542 133.724 15.0931 133.724 17.7111V24.426H131.466ZM127.169 21.2484C127.169 22.1478 127.809 22.7073 128.848 22.7073C130.267 22.7073 131.126 21.9279 131.126 20.6889V19.9294C130.467 19.8295 130.007 19.7895 129.528 19.7895C127.949 19.7895 127.169 20.2892 127.169 21.2484Z" fill="#565656"/>
<path d="M145.971 19.0901C145.971 22.2077 144.112 24.6259 141.234 24.6259C139.855 24.6259 138.696 24.0064 137.877 22.8872V24.426H135.319V10.0768H138.097V15.133C138.876 14.0938 139.955 13.5542 141.234 13.5542C144.112 13.5542 145.971 15.9324 145.971 19.0901ZM143.113 19.0901C143.113 17.0516 141.974 16.0124 140.615 16.0124C139.276 16.0124 138.117 17.0316 138.117 19.0501C138.117 21.0686 139.236 22.1478 140.615 22.1478C141.974 22.1478 143.113 21.0886 143.113 19.0901Z" fill="#565656"/>
<path d="M93.4035 24.6059C96.3213 24.6059 98.3798 22.8872 98.3997 20.449H95.7018C95.6218 21.6681 94.7425 22.4076 93.3635 22.4076C91.9246 22.4076 91.0852 21.6881 91.0852 20.489C91.0852 19.3099 92.0645 18.6104 93.7233 18.6104H95.1822V16.4121H93.8831C92.5242 16.4121 91.7048 15.7326 91.7048 14.6334C91.7048 13.5742 92.4043 12.9147 93.5634 12.9147C94.7025 12.9147 95.422 13.6342 95.442 14.8133H98.1399C98.1199 12.475 96.0815 10.7164 93.4235 10.7164C90.5856 10.7164 88.8469 12.2552 88.8469 14.4336C88.8469 15.6726 89.5664 16.6519 90.8654 17.3314C89.1867 17.871 88.2274 18.9502 88.2274 20.4091C88.2274 22.9072 90.3058 24.6059 93.4035 24.6059Z" fill="#565656"/>
</svg>
