<svg width="11" height="11" viewBox="0 0 11 11" fill="none" xmlns="http://www.w3.org/2000/svg">
<path d="M4.23271 0.69821C4.52738 -0.232781 5.84481 -0.232782 6.13948 0.69821L6.83256 2.88795C6.93077 3.19826 7.17387 3.44136 7.48419 3.53957L9.67392 4.23265C10.6049 4.52732 10.6049 5.84475 9.67392 6.13942L7.48419 6.83249C7.17387 6.93071 6.93077 7.17381 6.83256 7.48412L6.13948 9.67386C5.84481 10.6049 4.52738 10.6049 4.23271 9.67386L3.53964 7.48412C3.44142 7.17381 3.19832 6.93071 2.88801 6.83249L0.698271 6.13942C-0.23272 5.84475 -0.232722 4.52732 0.69827 4.23265L2.88801 3.53957C3.19832 3.44136 3.44142 3.19826 3.53964 2.88795L4.23271 0.69821Z" fill="#BCD4FF"/>
</svg>
