<svg width="40" height="40" viewBox="0 0 40 40" fill="none" xmlns="http://www.w3.org/2000/svg">
<rect width="40" height="40" rx="20" fill="#F6F6F6"/>
<path d="M12.0384 18.9575C16.9941 16.8406 20.2987 15.4451 21.9521 14.7708C26.6731 12.8457 27.6541 12.5113 28.2935 12.5001C28.4341 12.4978 28.7485 12.532 28.9522 12.694C29.1242 12.8308 29.1715 13.0156 29.1941 13.1453C29.2168 13.2751 29.245 13.5706 29.2226 13.8015C28.9667 16.4368 27.8598 22.8322 27.2966 25.7839C27.0583 27.0328 26.5891 27.4516 26.1348 27.4926C25.1476 27.5816 24.398 26.8529 23.4418 26.2385C21.9457 25.2769 21.1004 24.6783 19.6481 23.74C17.9697 22.6557 19.0577 22.0597 20.0143 21.0857C20.2646 20.8308 24.6142 16.952 24.6984 16.6001C24.7089 16.5561 24.7187 16.392 24.6193 16.3054C24.5199 16.2188 24.3732 16.2484 24.2673 16.272C24.1172 16.3054 21.7271 17.8542 17.0968 20.9186C16.4184 21.3753 15.8038 21.5979 15.2533 21.5862C14.6463 21.5734 13.4787 21.2497 12.6107 20.9731C11.5461 20.6338 10.7 20.4545 10.7737 19.8783C10.8121 19.5781 11.2336 19.2712 12.0384 18.9575Z" fill="#A0A0A0"/>
</svg>
