<svg width="149" height="36" viewBox="0 0 149 36" fill="none" xmlns="http://www.w3.org/2000/svg">
<path fill-rule="evenodd" clip-rule="evenodd" d="M13.566 24.579C14.1797 23.8426 15.0888 23.4168 16.0473 23.4168H29.069C32.6367 23.4168 35.5288 20.5247 35.5288 16.957V13.7271C35.5288 10.1595 32.6367 7.26733 29.069 7.26733H26.5445C25.5859 7.26733 24.6769 7.69311 24.0632 8.4295L21.9628 10.95C21.3491 11.6864 20.4401 12.1122 19.4815 12.1122H6.45979C2.89214 12.1122 0 15.0043 0 18.572V21.8019C0 25.3695 2.89214 28.2616 6.45979 28.2616H8.98435C9.94292 28.2616 10.852 27.8359 11.4656 27.0995L13.566 24.579ZM30.684 13.7271C30.684 12.8352 29.9609 12.1122 29.069 12.1122H24.1221C23.1635 12.1122 22.2544 12.5379 21.6408 13.2743L19.5404 15.7948C18.9267 16.5312 18.0177 16.957 17.0591 16.957H6.45979C5.56788 16.957 4.84484 17.68 4.84484 18.572V21.8019C4.84484 22.6938 5.56788 23.4168 6.45979 23.4168H11.4068C12.3653 23.4168 13.2744 22.991 13.888 22.2546L15.9885 19.7341C16.6021 18.9977 17.5112 18.572 18.4697 18.572H29.069C29.9609 18.572 30.684 17.8489 30.684 16.957V13.7271Z" fill="#565656"/>
<path d="M55.6211 24.4265L53.4028 16.6124L53.083 15.1735L52.7433 16.6124L50.5449 24.4265H46.9476L42.9307 10.8368H46.3481L48.5265 19.75L48.8862 21.3688L49.2459 19.75L51.764 10.8368H54.5619L57.06 19.75L57.4198 21.3688L57.7795 19.75L59.9579 10.8368H63.1954L59.1784 24.4265H55.6211Z" fill="#565656"/>
<path d="M66.3674 17.2319H63.3097C63.6295 14.8138 65.4881 13.3349 68.246 13.3349C71.3237 13.3349 72.9225 15.1335 72.9225 17.6316V21.7485C72.9225 23.1475 73.0424 23.8669 73.2222 24.4265H70.0646C69.9647 24.0668 69.9047 23.6071 69.8848 23.0875C69.0454 24.2467 67.7664 24.7463 66.4873 24.7463C64.4488 24.7463 62.93 23.7071 62.93 21.6486C62.93 20.1897 63.7694 19.0706 65.4681 18.471C66.867 18.0114 68.206 17.8715 69.8648 17.8515V17.6117C69.8648 16.4325 69.2852 15.813 68.1061 15.813C67.0669 15.813 66.5073 16.3926 66.3674 17.2319ZM65.9877 21.4488C65.9877 22.1682 66.5273 22.6279 67.4266 22.6279C68.7856 22.6279 69.8648 21.5287 69.8648 20.0498V19.6301C66.7671 19.6901 65.9877 20.4495 65.9877 21.4488Z" fill="#565656"/>
<path d="M74.6994 24.4265V13.6746H77.7571V15.1735C78.4366 13.8945 79.4758 13.3349 80.575 13.3349C81.0147 13.3349 81.4144 13.4548 81.6342 13.6746V16.2527C81.2745 16.1727 80.8948 16.1328 80.4151 16.1328C78.5765 16.1328 77.7571 17.172 77.7571 18.8707V24.4265H74.6994Z" fill="#565656"/>
<path d="M85.5153 28.8432H82.4576V13.6746H85.5153V14.7938C86.1748 13.8545 87.0942 13.3349 88.2133 13.3349C90.9912 13.3349 92.7299 15.5132 92.7299 19.0306C92.7299 22.6878 90.9513 24.7463 88.2133 24.7463C87.0742 24.7463 86.1549 24.2666 85.5153 23.3473V28.8432ZM87.5738 15.813C86.2148 15.813 85.5153 16.9522 85.5153 19.0306C85.5153 21.109 86.2348 22.2682 87.5738 22.2682C88.8928 22.2682 89.5923 21.129 89.5923 19.0306C89.5923 16.9522 88.8728 15.813 87.5738 15.813Z" fill="#565656"/>
<path d="M96.6015 16.6524C96.6015 18.7708 103.257 16.9122 103.257 21.169C103.257 23.2874 101.298 24.7463 98.5001 24.7463C95.7821 24.7463 93.8236 23.5472 93.4239 20.8892H96.4816C96.6215 21.8884 97.4409 22.428 98.58 22.428C99.6592 22.428 100.199 22.0083 100.199 21.3488C100.199 19.2704 93.6837 21.129 93.6837 16.8123C93.6837 15.0136 95.1426 13.3349 98.0205 13.3349C100.599 13.3349 102.557 14.514 102.857 17.2319H99.8191C99.6392 16.1328 98.9997 15.6731 97.9205 15.6731C97.1211 15.6731 96.6015 16.0728 96.6015 16.6524Z" fill="#565656"/>
<path d="M107.453 28.8432H104.395V13.6746H107.453V14.7938C108.112 13.8545 109.032 13.3349 110.151 13.3349C112.929 13.3349 114.667 15.5132 114.667 19.0306C114.667 22.6878 112.889 24.7463 110.151 24.7463C109.012 24.7463 108.092 24.2666 107.453 23.3473V28.8432ZM109.511 15.813C108.152 15.813 107.453 16.9522 107.453 19.0306C107.453 21.109 108.172 22.2682 109.511 22.2682C110.83 22.2682 111.53 21.129 111.53 19.0306C111.53 16.9522 110.81 15.813 109.511 15.813Z" fill="#565656"/>
<path d="M126.013 20.8892C125.454 23.3673 123.455 24.7463 120.817 24.7463C117.48 24.7463 115.421 22.5879 115.421 19.0506C115.421 15.3933 117.5 13.3349 120.697 13.3349C123.915 13.3349 125.933 15.4733 125.933 18.9906V19.6701H118.539C118.699 21.3888 119.498 22.3081 120.817 22.3081C121.816 22.3081 122.496 21.8685 122.816 20.8892H126.013ZM120.697 15.773C119.558 15.773 118.839 16.5125 118.599 17.9114H122.776C122.536 16.5125 121.816 15.773 120.697 15.773Z" fill="#565656"/>
<path d="M137.343 20.8892C136.783 23.3673 134.785 24.7463 132.147 24.7463C128.809 24.7463 126.751 22.5879 126.751 19.0506C126.751 15.3933 128.829 13.3349 132.027 13.3349C135.245 13.3349 137.263 15.4733 137.263 18.9906V19.6701H129.869C130.029 21.3888 130.828 22.3081 132.147 22.3081C133.146 22.3081 133.826 21.8685 134.145 20.8892H137.343ZM132.027 15.773C130.888 15.773 130.168 16.5125 129.929 17.9114H134.106C133.866 16.5125 133.146 15.773 132.027 15.773Z" fill="#565656"/>
<path d="M142.577 24.7463C139.819 24.7463 138.081 22.5879 138.081 19.0506C138.081 15.3933 139.859 13.3349 142.577 13.3349C143.717 13.3349 144.636 13.8145 145.295 14.7338V10.0374H148.353V24.4265H145.295V23.2874C144.636 24.2267 143.697 24.7463 142.577 24.7463ZM143.237 22.2682C144.596 22.2682 145.295 21.149 145.295 19.0506C145.295 16.9721 144.576 15.813 143.237 15.813C141.918 15.813 141.218 16.9522 141.218 19.0506C141.218 21.129 141.938 22.2682 143.237 22.2682Z" fill="#565656"/>
</svg>
